# xmcd CD database file
#
# Track frame offsets:
#	150
#	23682
#	46348
#	66366
#	91572
#	117594
#	132990
#	158652
#	181442
#	201712
#	218679
#
# Disc length: 3159 seconds
#
# Revision: 0
# Processed by: cddbd v1.5.2PL0 Copyright (c) Steve Scherf et al.
# Submitted via: CDex 1.51
#
DISCID=9a0c550b
DTITLE=Kari Bremnes - Norwegian Mood
DYEAR=2000
DGENRE=Jazz
TTITLE0=Kari Bremnes - A Lover In Berlin
TTITLE1=Kari Bremnes - Birds
TTITLE2=Kari Bremnes - Coastal Ship
TTITLE3=Kari Bremnes - Day
TTITLE4=Kari Bremnes - Montreal
TTITLE5=Kari Bremnes - My Heart Is Pounding Like A Ha
TTITLE6=Kari Bremnes - Riddle Beside Another Riddle
TTITLE7=Kari Bremnes - Song To A Town
TTITLE8=Kari Bremnes - The Copenhagen Haven
TTITLE9=Kari Bremnes - To Give You A Song
TTITLE10=Kari Bremnes - Wave On
EXTD=YEAR: 2000
EXTT0=
EXTT1=
EXTT2=
EXTT3=
EXTT4=
EXTT5=
EXTT6=
EXTT7=
EXTT8=
EXTT9=
EXTT10=
PLAYORDER=
